<svg xmlns="http://www.w3.org/2000/svg" version="1.1" xmlns:xlink="http://www.w3.org/1999/xlink" xmlns:svgjs="http://svgjs.dev/svgjs" width="100%" height="100%" viewBox="0 0 1000 600"><rect width="1000" height="600" x="0" y="0" fill="#292d39"/><g><circle r="166.66666666666666" cx="482.22892252604163" cy="504.45111138224956" fill="#6051c5" transform="matrix(0.39611832546383513,0,0,0.39611832546383513,0,100.17764853333745)"/><path d="M402.74398548540677 564.8678004010413L402.74398548540677 564.8678004010413Q409.8331058349107 564.8678004010413 415.8516243357141 562.7844670738401Q421.89907802161747 560.701133746639 426.26829097172 556.6502078326367Q430.66643910692244 552.5992819186345 433.1548650255238 546.9569208241312Q435.6432909441252 541.3434949147281 435.6432909441252 534.6594671566244L435.6432909441252 534.6594671566244Q435.6432909441252 520.0761338662162 427.0206057843204 513.0159487018122Q418.36898543941555 505.92682835230823 403.149078076807 505.92682835230823L403.149078076807 505.92682835230823L387.7266244184983 505.92682835230823L387.7266244184983 499.8793746664049L417.73241136721515 453.64094887657893L427.30995763532053 444.4684951998738L413.76829100851296 446.551828527075L372.53565224098986 446.551828527075L372.53565224098986 431.1293748687663L446.8990779480315 431.1293748687663L446.8990779480315 437.17682855466967L413.76829100851296 486.9742821117976L406.4766243633089 492.992800612601L406.4766243633089 493.4268283891013L413.56574471281283 491.95113394900045Q421.89907802161747 492.18261542980053 428.9881983711215 494.98932838450213Q436.0773187206255 497.7960413392037 441.2856520386284 503.1201153976067Q446.4939853566313 508.41525427090966 449.41643905173294 515.8226616565138Q452.30995756173456 523.201133857018 452.30995756173456 532.5761338294232L452.30995756173456 532.5761338294232Q452.30995756173456 543.8319208333295 448.3747723881323 552.5992819186345Q444.41065202943014 561.3377078188394 437.6398187160263 567.2694207643426Q430.86898540262257 573.201133709846 421.6965317259174 576.3261337006478Q412.5240780492122 579.4511336914495 402.3099577089065 579.4511336914495L402.3099577089065 579.4511336914495Q392.93495773650125 579.4511336914495 385.4407447955971 578.0043744364486Q377.94653185469286 576.5576151814479 372.33310594528973 574.2428003734466L372.33310594528973 574.2428003734466L376.7023188953922 559.4569207873383Q381.47662443689484 561.7428004102396 388.0449114545985 563.3053004056404Q394.6131984723022 564.8678004010413 402.74398548540677 564.8678004010413ZM485.23819820555303 577.1652540685482L485.23819820555303 431.1293748687663Q489.2023185642552 430.492800796566 494.09236484615803 430.2034489455658Q498.9824111280608 429.88516190946564 504.30648518646376 429.7694211690656Q509.6016240597667 429.6826156137655 514.7231518224696 429.56687487336546Q519.8157444000724 429.4511341329654 524.184957350175 429.4511341329654L524.184957350175 429.4511341329654Q541.6907443356847 429.4511341329654 554.5090313349918 434.89094893176843Q567.3273183342991 440.3018285454715 575.6606516431037 449.9951155539769Q583.9939849519085 459.6594673773823 588.0449108659107 473.2011340041899Q592.124771965013 486.7428006309975 592.124771965013 503.00437465720665L592.124771965013 503.00437465720665Q592.124771965013 517.7902542433148 588.2474571616108 531.4476616105226Q584.3990775433086 545.0761337926302 576.0657442345039 555.6085411690361Q567.7324109256994 566.140948545442 554.3932905945919 572.4777540823455Q541.0831054485843 578.8434948043491 522.1016240229737 578.8434948043491L522.1016240229737 578.8434948043491Q518.7740777364718 578.8434948043491 513.4789388631689 578.7277540639491Q508.1548648047659 578.6409485086491 502.5414388953627 578.3226614725488Q496.8990778008596 578.0043744364486 492.1247722593569 577.8018281407486Q487.3215315327542 577.5992818450485 485.23819820555303 577.1652540685482L485.23819820555303 577.1652540685482ZM524.6189851266752 444.873587791274L524.6189851266752 444.873587791274Q521.8990777272736 444.873587791274 518.6872721811718 444.873587791274Q515.4465314499699 444.873587791274 512.3215314591682 445.07613408697415Q509.1965314683665 445.3076155677743 506.592364809365 445.51016186347437Q503.9881981503636 445.7127081591745 502.5414388953627 445.9152544548746L502.5414388953627 445.9152544548746L502.5414388953627 562.58192077814Q503.5831055589633 562.7844670738401 506.47662406896495 562.9002078142403Q509.3990777640666 563.0159485546403 512.5240777548684 563.1027541099403Q515.6490777456701 563.2184948503404 518.5715314407718 563.3053004056404Q521.4939851358733 563.4210411460405 522.535651799474 563.4210411460405L522.535651799474 563.4210411460405Q537.1189850898821 563.4210411460405 547.0148183940877 558.4152541237377Q556.9106516982932 553.4094671014349 562.8423646437966 544.9893282373301Q568.7740775892998 536.5402541881255 571.2914386930013 525.6027542203193Q573.7798646116028 514.6652542525131 573.7798646116028 503.00437465720665L573.7798646116028 503.00437465720665Q573.7798646116028 492.79025431690087 571.4939849887014 482.4893284212951Q569.2081053658001 472.15946734058934 563.565744271297 463.82613403178465Q557.9523183618937 455.49280072297995 548.4615776490884 450.197661849677Q538.9997721213832 444.873587791274 524.6189851266752 444.873587791274Z " fill="#ffffff" transform="matrix(0.39611832546383513,0,0,0.39611832546383513,0,100.17764853333745)"/><path d="M750.7521559861641 429.45113610793135L777.2933175800376 528.270874478947L780.6877770562112 552.7051301910578L780.8926151280492 552.7051301910578L784.4626500943696 527.8319357535798L814.8079473080927 429.45113610793135L823.2355708351442 429.45113610793135L853.7857061207055 528.270874478947L857.3557410870258 552.7051301910578L857.5898417405551 552.7051301910578L861.3647147787135 527.8319357535798L886.2379092161916 429.45113610793135L903.2979943421324 429.45113610793135L862.2133296477568 579.2462917849315L852.5274151079859 579.2462917849315L822.5917940379388 480.42655341391577L818.8169209997805 458.0992035835678L817.763468058899 458.0992035835678L813.9593324390494 480.66065406744497L784.0529739506935 579.2462917849315L774.3670594109226 579.2462917849315L732.2289417756657 429.45113610793135L750.7521559861641 429.45113610793135ZM982.9507417054444 556.2751651573783L989.2714593507328 568.5069243042792Q982.9507417054444 573.5693509368483 973.352614910747 576.5248716876545Q963.7544881160495 579.4511298567695 953.0151206353974 579.4511298567695L953.0151206353974 579.4511298567695Q941.0174621420256 579.4511298567695 932.150899889607 575.5592064918465Q923.3136002188794 571.6672831269235 917.6366593707962 564.4101628675181Q911.9304559410218 557.1237800264216 909.2090358437447 547.0281893429747Q906.4583531647766 536.9033360778365 906.4583531647766 524.2619007872595L906.4583531647766 524.2619007872595Q906.4583531647766 497.28180046801856 918.4560116581483 483.17723609288396Q930.4829327332113 469.07267171774936 952.8102825635592 469.07267171774936L952.8102825635592 469.07267171774936Q959.9796150778911 469.07267171774936 967.1489475922231 470.65285112907145Q974.2890175248638 472.2330305403936 979.9952209546382 476.65168037575734Q985.6721618027213 481.07033021112113 989.2714593507328 489.17606533956985Q992.8414943170533 497.28180046801856 992.8414943170533 510.56701255580094L992.8414943170533 510.56701255580094Q992.8414943170533 517.5315069982948 991.5832033043337 525.9591305253462L991.5832033043337 525.9591305253462L923.9573770160846 525.9591305253462Q923.9573770160846 535.2061063397498 925.8301822443184 542.3754388540817Q927.7322500542432 549.5447713684136 931.7412237459307 554.4901476742181Q935.7501974376185 559.4355239800225 942.1587028279803 562.069156332226Q948.5964708000336 564.7027886844296 957.8727091961282 564.7027886844296L957.8727091961282 564.7027886844296Q965.0420417104601 564.7027886844296 972.1821116431008 562.1862066589906Q979.3514441574328 559.6696246335517 982.9507417054444 556.2751651573783L982.9507417054444 556.2751651573783ZM953.0151206353974 483.82101289008926L953.0151206353974 483.82101289008926Q940.5785234166583 483.82101289008926 933.1165650854148 490.34656860721583Q925.6253441724803 496.87212432434245 924.1622150879227 512.6739184375638L924.1622150879227 512.6739184375638L976.3959234066265 512.6739184375638Q976.3959234066265 496.66728625250437 970.3093064148673 490.22951828045126Q964.1934268414168 483.82101289008926 953.0151206353974 483.82101289008926ZM1022.9819534589385 492.01453576361143L1017.7146887545314 479.37310047303436Q1025.7033735562154 474.5447744939945 1036.3549532917943 472.2330305403936Q1046.977270445682 469.8920240051016 1058.5652527953775 469.8920240051016L1058.5652527953775 469.8920240051016Q1069.538720929559 469.8920240051016 1076.1813269734503 472.8475447559078Q1082.7946704356502 475.80306550671395 1086.2769176568972 480.5436037406804Q1089.7591648781442 485.2841419746468 1090.9296681457902 490.96108282273Q1092.070908831745 496.66728625250437 1092.070908831745 502.3442271005876L1092.070908831745 502.3442271005876Q1092.070908831745 514.9856623911646 1091.456394616231 527.0125834662276Q1090.8126178190255 539.0102419595994 1090.8126178190255 549.7496094402516L1090.8126178190255 549.7496094402516Q1090.8126178190255 557.5627187517889 1091.456394616231 564.4979506125916Q1092.070908831745 571.4624450550854 1093.7681385698318 577.3442239750067L1093.7681385698318 577.3442239750067L1081.3315413510927 577.3442239750067L1076.9128915157291 562.5958828026668L1075.8594385748477 562.5958828026668Q1073.9573707649229 565.5514035534729 1071.1189003408813 568.3898739775146Q1068.2804299168397 571.2576069832473 1064.271456225152 573.4523006100836Q1060.2624825334644 575.676256818611 1054.9952178290573 577.1393859031687Q1049.7279531246502 578.6317775694173 1042.9975593356855 578.6317775694173L1042.9975593356855 578.6317775694173Q1036.2379029650297 578.6317775694173 1030.4439117901818 576.5248716876545Q1024.649920615334 574.4179658058916 1020.4361088518083 570.4967798592775Q1016.2222970882826 566.6048564943544 1013.7935028079171 561.1327537181093Q1011.3939711092428 555.6606509418641 1011.3939711092428 548.6961564993702L1011.3939711092428 548.6961564993702Q1011.3939711092428 539.4199181032754 1015.1688441474012 533.2162507847515Q1018.9729797672508 527.0125834662276 1025.82042388298 523.3254981731426Q1032.6678679987092 519.6384128800576 1042.2367322117154 518.0582334687355Q1051.834859006413 516.4780540574134 1063.4228413561086 516.4780540574134L1063.4228413561086 516.4780540574134Q1066.378362106915 516.4780540574134 1069.2168325309565 516.4780540574134Q1072.055302954998 516.4780540574134 1075.0108237058041 516.8877302010894L1075.0108237058041 516.8877302010894Q1075.6546005030095 510.56701255580094 1075.6546005030095 505.50458592323184L1075.6546005030095 505.50458592323184Q1075.6546005030095 493.91660357353624 1071.0018500141166 489.2931156663344Q1066.378362106915 484.6403651774415 1054.146602960014 484.6403651774415L1054.146602960014 484.6403651774415Q1050.5765679936935 484.6403651774415 1046.450543975241 485.1670916478822Q1042.3537825384801 485.6938181183229 1038.0229204481898 486.65948331413085Q1033.7213209395907 487.5958859282477 1029.8293975746676 488.97122726773176Q1025.9082116280536 490.34656860721583 1022.9819534589385 492.01453576361143L1022.9819534589385 492.01453576361143ZM1047.6210472428872 563.8834363970774L1047.6210472428872 563.8834363970774Q1053.5320887444998 563.8834363970774 1058.1555766517015 562.3032569857553Q1062.7790645589034 560.7230775744331 1066.1735240350768 558.2942832940676Q1069.538720929559 555.8654890137021 1071.7334145563955 552.909968262896Q1073.9573707649229 549.9544475120897 1075.0108237058041 547.2330274148127L1075.0108237058041 547.2330274148127L1075.0108237058041 529.7340035635046Q1072.055302954998 529.5291654916666 1069.0119944591183 529.4121151649019Q1065.9394233815476 529.3243274198285 1063.0131652124326 529.3243274198285L1063.0131652124326 529.3243274198285Q1056.4583469136148 529.3243274198285 1050.254679595091 530.0558919621072Q1044.0510122765668 530.787456504386 1039.3104740426004 532.8065746410755Q1034.569935808634 534.7964301960736 1031.7022028029014 538.2786774173205Q1028.8637323788596 541.7609246385675 1028.8637323788596 547.0281893429747L1028.8637323788596 547.0281893429747Q1028.8637323788596 554.4023599291446 1034.1309970832667 559.142898163111Q1039.3982617876738 563.8834363970774 1047.6210472428872 563.8834363970774ZM1109.9796088267292 486.3375949155282L1109.9796088267292 471.5892537431883L1126.4251797371558 471.5892537431883L1126.4251797371558 450.7250329973979L1143.2804267912586 445.89670701835803L1143.2804267912586 471.5892537431883L1171.928494266895 471.5892537431883L1171.928494266895 486.3375949155282L1143.2804267912586 486.3375949155282L1143.2804267912586 544.6871828076826Q1143.2804267912586 555.6606509418641 1146.0018468885357 560.1963511039924Q1148.7525295675039 564.7027886844296 1155.2780852846304 564.7027886844296L1155.2780852846304 564.7027886844296Q1160.7501880608756 564.7027886844296 1164.5543236807252 563.5615479984747Q1168.3584593005749 562.3910447308288 1172.9819472077766 560.488976920904L1172.9819472077766 560.488976920904L1176.7860828276262 573.3645128650102Q1171.0798793978518 576.0859329622872 1164.349485608887 577.783162700374Q1157.5898292382312 579.4511298567695 1149.8059825083853 579.4511298567695L1149.8059825083853 579.4511298567695Q1136.95970914597 579.4511298567695 1131.692444441563 572.1940095973641Q1126.4251797371558 564.9368893379587 1126.4251797371558 547.8475416303269L1126.4251797371558 547.8475416303269L1126.4251797371558 486.3375949155282L1109.9796088267292 486.3375949155282ZM1279.7903703804764 576.9345478313306L1262.9351233263735 576.9345478313306L1262.9351233263735 516.8877302010894Q1262.9351233263735 508.66494474587614 1261.9987207122567 502.46127742735223Q1261.06231809814 496.22834752713715 1258.51647349101 492.131586090376Q1255.999891465571 488.0348246536149 1251.6690293752806 485.9279187718521Q1247.3674298666815 483.82101289008926 1240.4029354241877 483.82101289008926L1240.4029354241877 483.82101289008926Q1230.5121828125787 483.82101289008926 1222.4942354292034 490.22951828045126Q1214.4762880458281 496.66728625250437 1212.1645440922273 506.76287693595134L1212.1645440922273 506.76287693595134L1212.1645440922273 576.9345478313306L1195.3092970381244 576.9345478313306L1195.3092970381244 429.45113610793135L1212.1645440922273 429.45113610793135L1212.1645440922273 483.382074164722L1213.0131589612706 483.382074164722Q1218.4852617375159 476.8565184475954 1226.1813207222883 472.96459508267236Q1233.877379707061 469.07267171774936 1245.2605239849186 469.07267171774936L1245.2605239849186 469.07267171774936Q1254.097823655646 469.07267171774936 1260.6233793727727 471.06252727274756Q1267.1489350898992 473.0523828277458 1271.4797971801895 478.11480946031486Q1275.8106592704798 483.17723609288396 1277.800514825478 491.72190994669995Q1279.7903703804764 500.2373212188248 1279.7903703804764 513.3176952347691L1279.7903703804764 513.3176952347691L1279.7903703804764 576.9345478313306ZM1381.1559533586224 556.2751651573783L1387.4766710039107 568.5069243042792Q1381.1559533586224 573.5693509368483 1371.5578265639247 576.5248716876545Q1361.9596997692274 579.4511298567695 1351.2203322885753 579.4511298567695L1351.2203322885753 579.4511298567695Q1339.2226737952033 579.4511298567695 1330.3561115427844 575.5592064918465Q1321.5188118720573 571.6672831269235 1315.841871023974 564.4101628675181Q1310.1356675941995 557.1237800264216 1307.4142474969224 547.0281893429747Q1304.6635648179545 536.9033360778365 1304.6635648179545 524.2619007872595L1304.6635648179545 524.2619007872595Q1304.6635648179545 497.28180046801856 1316.6612233113262 483.17723609288396Q1328.688144386389 469.07267171774936 1351.015494216737 469.07267171774936L1351.015494216737 469.07267171774936Q1358.1848267310688 469.07267171774936 1365.3541592454008 470.65285112907145Q1372.4942291780417 472.2330305403936 1378.200432607816 476.65168037575734Q1383.8773734558993 481.07033021112113 1387.4766710039107 489.17606533956985Q1391.046705970231 497.28180046801856 1391.046705970231 510.56701255580094L1391.046705970231 510.56701255580094Q1391.046705970231 517.5315069982948 1389.7884149575116 525.9591305253462L1389.7884149575116 525.9591305253462L1322.1625886692625 525.9591305253462Q1322.1625886692625 535.2061063397498 1324.035393897496 542.3754388540817Q1325.9374617074209 549.5447713684136 1329.9464353991084 554.4901476742181Q1333.9554090907961 559.4355239800225 1340.3639144811582 562.069156332226Q1346.8016824532112 564.7027886844296 1356.077920849306 564.7027886844296L1356.077920849306 564.7027886844296Q1363.2472533636378 564.7027886844296 1370.3873232962787 562.1862066589906Q1377.5566558106107 559.6696246335517 1381.1559533586224 556.2751651573783L1381.1559533586224 556.2751651573783ZM1351.2203322885753 483.82101289008926L1351.2203322885753 483.82101289008926Q1338.783735069836 483.82101289008926 1331.3217767385927 490.34656860721583Q1323.830555825658 496.87212432434245 1322.3674267411006 512.6739184375638L1322.3674267411006 512.6739184375638L1374.6011350598044 512.6739184375638Q1374.6011350598044 496.66728625250437 1368.5145180680452 490.22951828045126Q1362.3986384945947 483.82101289008926 1351.2203322885753 483.82101289008926ZM1470.9042914053812 471.5892537431883L1467.3049938573695 487.8007240000857Q1460.984276212081 485.6938181183229 1455.307335363998 485.6938181183229L1455.307335363998 485.6938181183229Q1446.2359350397412 485.6938181183229 1440.968670335334 490.6684570058185Q1435.701405630927 495.61383331162295 1434.4431146182076 503.192841969631L1434.4431146182076 503.192841969631L1434.4431146182076 576.9345478313306L1417.5878675641047 576.9345478313306L1417.5878675641047 471.5892537431883L1429.3806879856384 471.5892537431883L1432.5410468082828 484.4355271056034L1433.389661677326 484.4355271056034Q1437.3986353690138 477.2661945912715 1442.9877884720236 473.37427122634847Q1448.5769415750333 469.48234786142547 1457.2094031739225 469.48234786142547L1457.2094031739225 469.48234786142547Q1463.3252827473732 469.48234786142547 1470.9042914053812 471.5892537431883L1470.9042914053812 471.5892537431883ZM1545.494612136124 429.45113610793135L1572.0357737299978 528.270874478947L1575.4009706244801 552.7051301910578L1575.605808696318 552.7051301910578L1579.2051062443297 527.8319357535798L1609.5211408763616 429.45113610793135L1617.948764403413 429.45113610793135L1648.4988996889742 528.270874478947L1652.098197236986 552.7051301910578L1652.3030353088238 552.7051301910578L1656.1071709286734 527.8319357535798L1680.9511027844605 429.45113610793135L1698.0111879104013 429.45113610793135L1656.9265232160258 579.2462917849315L1647.2406086762549 579.2462917849315L1617.334250187899 480.42655341391577L1613.5301145680494 458.0992035835678L1612.476661627168 458.0992035835678L1608.7017885890095 480.66065406744497L1578.7661675189624 579.2462917849315L1569.0802529791915 579.2462917849315L1526.9421353439348 429.45113610793135L1545.494612136124 429.45113610793135ZM1701.1715467330455 524.2619007872595L1701.1715467330455 524.2619007872595Q1701.1715467330455 497.51590112154776 1713.0814174813436 483.29428641964853Q1724.9912882296421 469.07267171774936 1747.31863805999 469.07267171774936L1747.31863805999 469.07267171774936Q1759.1114584815236 469.07267171774936 1767.8609704071778 472.96459508267236Q1776.610482332832 476.8565184475954 1782.287423180915 484.11363870700075Q1787.9936266106893 491.40002154809724 1790.7150467079664 501.61266255830884Q1793.4657293869345 511.82530356852044 1793.4657293869345 524.2619007872595L1793.4657293869345 524.2619007872595Q1793.4657293869345 551.0079004529712 1781.5558586386364 565.2295151548703Q1769.645987890338 579.4511298567695 1747.31863805999 579.4511298567695L1747.31863805999 579.4511298567695Q1735.5258176384564 579.4511298567695 1726.7763057128022 575.5592064918465Q1718.026793787148 571.6672831269235 1712.349852939065 564.4101628675181Q1706.6729120909818 557.1237800264216 1703.9222294120136 546.91113901621Q1701.1715467330455 536.6984980059984 1701.1715467330455 524.2619007872595ZM1718.6705705843538 524.2619007872595L1718.6705705843538 524.2619007872595Q1718.6705705843538 532.2798481706348 1720.2507499956757 539.6540187568046Q1721.8309294069977 547.0281893429747 1725.1961263014803 552.5002921192198Q1728.5613231959624 557.972394895465 1734.0626885538989 561.3375917899473Q1739.534791330144 564.7027886844296 1747.31863805999 564.7027886844296L1747.31863805999 564.7027886844296Q1775.9667055356267 564.9368893379587 1775.9667055356267 524.2619007872595L1775.9667055356267 524.2619007872595Q1775.9667055356267 516.0391153320461 1774.3865261243045 508.66494474587614Q1772.8063467129823 501.2907741597062 1769.4411498185 495.81867138346104Q1766.0759529240177 490.34656860721583 1760.6038501477724 487.06915945780696Q1755.1317473715271 483.82101289008926 1747.31863805999 483.82101289008926L1747.31863805999 483.82101289008926Q1718.6705705843538 483.58691223656007 1718.6705705843538 524.2619007872595ZM1904.4879643231602 576.9345478313306L1887.6327172690576 576.9345478313306L1887.6327172690576 516.8877302010894Q1887.6327172690576 500.4421592906628 1882.892179035091 492.131586090376Q1878.1516408011244 483.82101289008926 1865.5102055105476 483.82101289008926L1865.5102055105476 483.82101289008926Q1854.3611618862192 483.82101289008926 1847.0747790451228 489.81984213677515Q1839.817658785717 495.81867138346104 1836.862138034911 504.8900717077177L1836.862138034911 504.8900717077177L1836.862138034911 576.9345478313306L1820.0068909808083 576.9345478313306L1820.0068909808083 471.5892537431883L1831.799711402342 471.5892537431883L1834.9600702249863 484.4355271056034L1835.8086850940294 484.4355271056034Q1840.8711117265984 477.7051333166388 1849.4157855804146 473.37427122634847Q1857.9311968525394 469.07267171774936 1869.724017274073 469.07267171774936L1869.724017274073 469.07267171774936Q1878.3857414546537 469.07267171774936 1884.9112971717805 471.06252727274756Q1891.4368528889072 473.0523828277458 1895.767714979197 478.11480946031486Q1900.0693144877964 483.17723609288396 1902.2932706963238 491.72190994669995Q1904.4879643231602 500.2373212188248 1904.4879643231602 513.3176952347691L1904.4879643231602 513.3176952347691L1904.4879643231602 576.9345478313306ZM2016.153976056591 429.45113610793135L2016.153976056591 540.7074716976861Q2016.153976056591 551.4468391783383 2016.38807671012 560.1963511039924Q2016.5929147819584 568.9166004479553 2018.2608819383536 577.3442239750067L2018.2608819383536 577.3442239750067L2006.9070002421872 577.3442239750067L2002.6931884786618 562.3910447308288L2001.8445736096182 562.3910447308288Q1997.6307618460924 569.7652153169987 1989.6128144627173 574.6228038777297Q1981.6241296610333 579.4511298567695 1970.8554995986897 579.4511298567695L1970.8554995986897 579.4511298567695Q1949.7864407810612 579.4511298567695 1939.5737997708497 566.1951803506782Q1929.3611587606383 552.909968262896 1929.3611587606383 524.6715769309355L1929.3611587606383 524.6715769309355Q1929.3611587606383 497.72073919338584 1942.11964437798 483.70396256332464Q1954.8488674136306 469.6871859332635 1977.176217243978 469.6871859332635L1977.176217243978 469.6871859332635Q1984.9893265555156 469.6871859332635 1989.5250267176439 470.5358008023069Q1994.0314642980807 471.3844156713502 1999.298729002488 473.286483481275L1999.298729002488 473.286483481275L1999.298729002488 429.45113610793135L2016.153976056591 429.45113610793135ZM1973.6061822776578 564.7027886844296L1973.6061822776578 564.7027886844296Q1984.34554975831 564.7027886844296 1990.6662674035988 559.142898163111Q1996.9869850488872 553.5537450601012 1999.298729002488 542.1706007822436L1999.298729002488 542.1706007822436L1999.298729002488 489.9076298818486Q1995.5238559643299 486.98137171273356 1990.6662674035988 485.6938181183229Q1985.8379414245592 484.4355271056034 1977.8199940411837 484.4355271056034L1977.8199940411837 484.4355271056034Q1963.276490940682 484.4355271056034 1955.053705485468 494.0336539003008Q1946.8601826119466 503.6025181133071 1946.8601826119466 524.6715769309355L1946.8601826119466 524.6715769309355Q1946.8601826119466 533.3333011115161 1948.206261369739 540.7074716976861Q1949.5816027092233 548.081642283856 1952.7419615318677 553.3489069882631Q1955.9023203545116 558.6161716926703 1961.081797313845 561.6594801885499Q1966.232011691488 564.7027886844296 1973.6061822776578 564.7027886844296ZM2119.1875261911323 556.2751651573783L2125.5082438364207 568.5069243042792Q2119.1875261911323 573.5693509368483 2109.618661978126 576.5248716876545Q2100.020535183429 579.4511298567695 2089.281167702776 579.4511298567695L2089.281167702776 579.4511298567695Q2077.2542466277137 579.4511298567695 2068.416946956986 575.5592064918465Q2059.5796472862585 571.6672831269235 2053.8734438564843 564.4101628675181Q2048.196503008401 557.1237800264216 2045.445820329433 547.0281893429747Q2042.7244002321559 536.9033360778365 2042.7244002321559 524.2619007872595L2042.7244002321559 524.2619007872595Q2042.7244002321559 497.28180046801856 2054.7220587255274 483.17723609288396Q2066.719717218899 469.07267171774936 2089.0763296309383 469.07267171774936L2089.0763296309383 469.07267171774936Q2096.2163995635788 469.07267171774936 2103.3857320779107 470.65285112907145Q2110.555064592243 472.2330305403936 2116.2320054403262 476.65168037575734Q2121.9382088701004 481.07033021112113 2125.5082438364207 489.17606533956985Q2129.1075413844324 497.28180046801856 2129.1075413844324 510.56701255580094L2129.1075413844324 510.56701255580094Q2129.1075413844324 517.5315069982948 2127.819987790022 525.9591305253462L2127.819987790022 525.9591305253462L2060.1941615017727 525.9591305253462Q2060.1941615017727 535.2061063397498 2062.0962293116977 542.3754388540817Q2063.9982971216223 549.5447713684136 2068.00727081331 554.4901476742181Q2071.9869819233063 559.4355239800225 2078.4247498953596 562.069156332226Q2084.862517867413 564.7027886844296 2094.1094936818163 564.7027886844296L2094.1094936818163 564.7027886844296Q2101.278826196148 564.7027886844296 2108.44815871048 562.1862066589906Q2115.617491224812 559.6696246335517 2119.1875261911323 556.2751651573783L2119.1875261911323 556.2751651573783ZM2089.281167702776 483.82101289008926L2089.281167702776 483.82101289008926Q2076.8445704840374 483.82101289008926 2069.3533495711026 490.34656860721583Q2061.8913912398593 496.87212432434245 2060.3989995736106 512.6739184375638L2060.3989995736106 512.6739184375638L2112.6619704740056 512.6739184375638Q2112.6619704740056 496.66728625250437 2106.546090900555 490.22951828045126Q2100.4302113271046 483.82101289008926 2089.281167702776 483.82101289008926ZM2208.935864237891 471.5892537431883L2205.365829271571 487.8007240000857Q2199.0451116262825 485.6938181183229 2193.368170778199 485.6938181183229L2193.368170778199 485.6938181183229Q2184.2967704539424 485.6938181183229 2179.0295057495355 490.6684570058185Q2173.762241045128 495.61383331162295 2172.5039500324087 503.192841969631L2172.5039500324087 503.192841969631L2172.5039500324087 576.9345478313306L2155.648702978306 576.9345478313306L2155.648702978306 471.5892537431883L2167.4415233998398 471.5892537431883L2170.601882222484 484.4355271056034L2171.4504970915273 484.4355271056034Q2175.459470783215 477.2661945912715 2181.0193613045335 473.37427122634847Q2186.608514407543 469.48234786142547 2195.240976006433 469.48234786142547L2195.240976006433 469.48234786142547Q2201.3568555798834 469.48234786142547 2208.935864237891 471.5892537431883L2208.935864237891 471.5892537431883Z " fill="#ffffff" transform="matrix(0.39611832546383513,0,0,0.39611832546383513,0,100.17764853333745)"/></g></svg>